<svg width="600" height="600" viewBox="0 0 600 600" fill="none" xmlns="http://www.w3.org/2000/svg">
<g clip-path="url(#clip0_141_201)">
<g clip-path="url(#clip1_141_201)">
<path fill-rule="evenodd" clip-rule="evenodd" d="M118.2 307.44C183.081 307.44 235.68 360.039 235.68 424.92C235.68 489.801 183.081 542.4 118.2 542.4C53.3186 542.4 0.71962 489.801 0.71962 424.92C0.71962 360.039 53.3186 307.44 118.2 307.44ZM481.32 307.44C546.201 307.44 598.799 360.039 598.799 424.92C598.799 489.801 546.201 542.4 481.32 542.4C416.439 542.4 363.84 489.801 363.84 424.92C363.84 360.039 416.439 307.44 481.32 307.44ZM118.2 336.81C166.794 336.81 206.31 376.326 206.31 424.92C206.31 473.514 166.794 513.03 118.2 513.03C69.6056 513.03 30.0896 473.514 30.0896 424.92C30.0896 376.326 69.6056 336.81 118.2 336.81V336.81ZM481.32 336.81C529.914 336.81 569.43 376.326 569.43 424.92C569.43 473.514 529.914 513.03 481.32 513.03C432.726 513.03 393.21 473.514 393.21 424.92C393.21 376.326 432.726 336.81 481.32 336.81ZM138.937 270.06C137.602 268.369 136.356 266.589 135.288 264.72C122.561 242.648 130.126 214.524 152.109 201.797L200.347 173.94L200.258 174.296L316.67 213.1L225.089 265.966L357.076 319.277C368.023 323.638 373.274 336.098 368.824 347.045L368.735 347.312C368.29 348.647 367.667 349.893 366.955 351.139L298.069 467.818C292.106 477.964 279.023 481.346 268.877 475.383C258.731 469.331 255.349 456.248 261.312 446.102L318.272 349.626L161.632 286.436C152.376 283.944 144.366 278.07 138.937 270.06V270.06ZM459.96 286.08H390.184C384.043 286.08 378.436 283.499 374.609 279.227C373.363 277.981 372.206 276.557 371.316 274.955L330.91 204.912L329.041 205.98L212.362 166.998L294.776 119.472C316.759 106.745 344.972 114.31 357.699 136.293C364.285 147.685 365.442 160.768 361.882 172.516L402.822 243.36H459.96C471.708 243.36 481.32 252.972 481.32 264.72C481.32 276.468 471.708 286.08 459.96 286.08V286.08ZM293.797 112.886C295.399 111.996 296.556 110.483 297.001 108.703C297.446 107.012 297.268 105.143 296.289 103.541C286.41 86.3641 264.516 80.4901 247.339 90.3691C220.906 105.677 183.704 127.126 161.899 139.764C152.02 145.46 148.549 158.098 154.334 167.977C154.512 168.422 154.779 168.778 154.957 169.223C160.653 179.102 173.38 182.484 183.259 176.788C213.786 159.077 274.662 124.011 293.797 112.886V112.886ZM385.2 51.1201C408.785 51.1201 427.92 70.2551 427.92 93.8401C427.92 117.425 408.785 136.56 385.2 136.56C361.615 136.56 342.48 117.425 342.48 93.8401C342.48 70.2551 361.615 51.1201 385.2 51.1201V51.1201Z" fill="#F0F0F0"/>
</g>
</g>
<defs>
<clipPath id="clip0_141_201">
<rect width="600" height="600" fill="white"/>
</clipPath>
<clipPath id="clip1_141_201">
<rect width="712" height="890" fill="white" transform="translate(-42 -45)"/>
</clipPath>
</defs>
</svg>
