<svg width="300" height="300" viewBox="0 0 300 300" fill="none" xmlns="http://www.w3.org/2000/svg">
<path fill-rule="evenodd" clip-rule="evenodd" d="M40 0C17.9086 0 0 17.9086 0 40V260C0 282.091 17.9086 300 40 300H260C282.091 300 300 282.091 300 260V40C300 17.9086 282.091 0 260 0H40ZM123 203.472C123 176.207 100.837 154.104 73.4998 154.104C46.1623 154.104 23.9998 176.207 23.9998 203.472C23.9998 230.737 46.1623 252.84 73.4998 252.84C100.837 252.84 123 230.737 123 203.472ZM276 203.472C276 176.207 253.837 154.104 226.5 154.104C199.162 154.104 177 176.207 177 203.472C177 230.737 199.162 252.84 226.5 252.84C253.837 252.84 276 230.737 276 203.472ZM110.625 203.472C110.625 183.052 93.9748 166.446 73.4998 166.446C53.0248 166.446 36.3748 183.052 36.3748 203.472C36.3748 223.892 53.0248 240.498 73.4998 240.498C93.9748 240.498 110.625 223.892 110.625 203.472ZM263.625 203.472C263.625 183.052 246.975 166.446 226.5 166.446C206.025 166.446 189.375 183.052 189.375 203.472C189.375 223.892 206.025 240.498 226.5 240.498C246.975 240.498 263.625 223.892 263.625 203.472ZM80.6998 136.152C81.1498 136.937 81.6748 137.685 82.2373 138.396C84.5248 141.762 87.8998 144.23 91.7998 145.278L157.8 171.832L133.8 212.373C131.287 216.637 132.712 222.135 136.987 224.678C141.262 227.184 146.775 225.762 149.287 221.499L178.312 172.467C178.612 171.944 178.875 171.42 179.062 170.859L179.1 170.747C180.975 166.147 178.762 160.911 174.15 159.078L118.537 136.676L157.125 114.46L108.075 98.1537L108.112 98.0041L87.7873 109.71C78.5248 115.058 75.3373 126.877 80.6998 136.152ZM188.1 145.128H217.5C222.45 145.128 226.5 141.089 226.5 136.152C226.5 131.215 222.45 127.176 217.5 127.176H193.425L176.175 97.4057C177.675 92.4689 177.187 86.9711 174.412 82.1839C169.05 72.9461 157.162 69.7671 147.9 75.1153L113.175 95.0869L162.337 111.468L163.125 111.019L180.15 140.453C180.525 141.126 181.012 141.725 181.537 142.248C183.15 144.043 185.512 145.128 188.1 145.128ZM148.837 70.5899C148.65 71.3379 148.162 71.9737 147.487 72.3477C143.563 74.623 135.473 79.2817 126.718 84.3228L126.713 84.3258C117.482 89.6412 107.513 95.3814 100.912 99.2009C96.7498 101.594 91.3873 100.173 88.9873 96.0219C88.9498 95.9284 88.903 95.8442 88.8561 95.7601C88.8092 95.6759 88.7623 95.5918 88.7248 95.4983C86.2873 91.3469 87.7498 86.0361 91.9123 83.6425C96.5929 80.9369 102.957 77.2703 109.548 73.4735L109.575 73.4575L109.599 73.4442L109.724 73.372C116.015 69.7478 122.499 66.0119 127.912 62.8855C135.15 58.7341 144.375 61.2025 148.537 68.4207C148.95 69.0939 149.025 69.8793 148.837 70.5899ZM204 64.3441C204 54.4331 195.937 46.3921 186 46.3921C176.062 46.3921 168 54.4331 168 64.3441C168 74.2551 176.062 82.2961 186 82.2961C195.937 82.2961 204 74.2551 204 64.3441Z" fill="#F0F0F0"/>
</svg>
