<svg width="600" height="600" viewBox="0 0 600 600" fill="none" xmlns="http://www.w3.org/2000/svg">
<g clip-path="url(#clip0_141_201)">
<path d="M590.159 273.352C587.689 272.174 582.296 271.714 572.617 271.652H558.583V300.461V329.271L571.639 329.336C586.515 329.403 588.856 328.876 593.015 324.687C597.824 319.841 599.251 313.948 599.315 299.48C599.255 282.65 597.241 276.82 590.159 273.352Z" fill="#F0F0F0"/>
<path d="M532.274 224.307C528.829 222.539 525.585 222.147 514.866 222.082C507.59 222.085 499.923 222.739 497.844 223.521C492.969 225.286 488.488 229.021 486.67 232.689C485.562 234.848 485.176 255.144 485.173 305.3C485.238 370.714 485.431 375.231 487.579 378.179C489.139 380.274 491.478 382.239 494.661 384.004C498.754 386.294 501.092 386.686 512.654 386.82C520.061 386.952 527.659 386.363 529.936 385.642C535.978 383.482 540.201 378.833 541.5 372.806C542.736 366.717 542.54 238.713 541.242 234.788C539.683 230.072 536.825 226.669 532.274 224.307Z" fill="#F0F0F0"/>
<path d="M463.995 181.687C459.384 180.179 421.962 180.443 417.545 182.016C411.826 183.981 406.306 189.806 404.227 196.092C402.994 199.822 402.6 224.836 402.734 305.24C402.796 362.66 403.251 411.178 403.903 413.009C405.397 417.53 410.921 424.141 415.078 426.236C417.548 427.544 423.976 428.006 440.218 428.136C452.109 428.201 463.215 427.744 464.906 427.085C469.646 425.185 472.767 421.385 474.848 414.971C476.533 409.993 476.73 394.084 476.664 303.533C476.599 223.328 476.146 196.81 474.972 193.403C473.089 188.233 468.283 182.992 463.995 181.687Z" fill="#F0F0F0"/>
<path d="M300.28 271.652L214.266 271.647V300.459V329.268L300.409 329.264H386.428V300.454V271.645L300.28 271.652Z" fill="#F0F0F0"/>
<path d="M183.667 182.013C179.703 180.375 140.852 180.114 136.565 181.687C132.213 183.325 127.599 188.237 125.714 193.406C124.545 196.81 124.092 223.328 124.024 303.535C123.959 394.09 124.153 409.997 125.84 414.973C127.919 421.39 131.038 425.185 135.781 427.087C137.468 427.744 148.582 428.201 160.469 428.138C176.711 428.008 183.142 427.551 185.609 426.238C189.767 424.143 195.288 417.53 196.784 413.013C197.432 411.178 197.888 362.66 197.953 305.242C198.086 224.834 197.697 199.822 196.463 196.092C194.514 190.329 188.864 184.105 183.667 182.013Z" fill="#F0F0F0"/>
<path d="M105.644 224.639C101.033 222.477 94.4048 221.69 83.1654 222.02C68.2895 222.347 62.7038 225.49 59.4527 234.79C58.1511 238.72 57.8952 366.659 59.1937 372.809C60.4955 378.833 64.7147 383.484 70.757 385.644C73.0301 386.363 80.63 386.952 88.0388 386.823C99.6053 386.693 101.943 386.301 106.033 384.006C109.216 382.241 111.554 380.276 113.115 378.181C115.261 375.235 115.391 370.653 115.582 305.894C115.582 266.349 115.126 235.511 114.478 233.809C113.05 230.267 109.407 226.471 105.644 224.639Z" fill="#F0F0F0"/>
<path d="M27.5524 271.647C11.5693 271.777 8.5158 272.758 4.74983 278.651C1.89056 283.235 0.980648 289.257 1.23972 301.828C1.49876 313.877 3.31866 320.291 7.67062 324.678C11.8283 328.867 14.1662 329.389 29.0454 329.329L42.1013 329.264V300.452V271.513L27.5524 271.647Z" fill="#F0F0F0"/>
</g>
<defs>
<clipPath id="clip0_141_201">
<rect width="600" height="600" fill="white"/>
</clipPath>
</defs>
</svg>
