<svg width="300" height="300" viewBox="0 0 300 300" fill="none" xmlns="http://www.w3.org/2000/svg">
<path fill-rule="evenodd" clip-rule="evenodd" d="M40 0C17.9086 0 0 17.9086 0 40V260C0 282.091 17.9086 300 40 300H260C282.091 300 300 282.091 300 260V40C300 17.9086 282.091 0 260 0H40ZM263.589 137.85C267.64 137.876 269.897 138.068 270.93 138.561C273.894 140.012 274.737 142.451 274.762 149.492C274.735 155.545 274.138 158.01 272.126 160.037C270.385 161.79 269.405 162.01 263.18 161.982L257.716 161.955V149.902V137.85H263.589ZM246.706 118.043C245.264 117.303 243.906 117.139 239.42 117.112C236.375 117.113 233.167 117.387 232.297 117.714C230.257 118.453 228.381 120.015 227.62 121.549C227.157 122.453 226.995 130.944 226.994 151.927C227.021 179.292 227.102 181.182 228.001 182.415C228.654 183.292 229.633 184.114 230.965 184.852C232.677 185.81 233.656 185.974 238.495 186.031C241.595 186.086 244.774 185.839 245.727 185.538C248.256 184.634 250.023 182.689 250.566 180.168C251.084 177.62 251.002 124.07 250.459 122.428C249.806 120.455 248.61 119.031 246.706 118.043ZM198.692 100.351C200.541 99.6925 216.202 99.5819 218.131 100.213C219.926 100.759 221.937 102.951 222.725 105.114C223.216 106.539 223.406 117.633 223.433 151.187C223.461 189.069 223.378 195.725 222.673 197.808C221.802 200.491 220.496 202.081 218.513 202.875C217.805 203.151 213.157 203.342 208.18 203.315C201.384 203.261 198.693 203.068 197.66 202.52C195.92 201.644 193.608 198.878 192.983 196.986C192.71 196.221 192.52 175.923 192.493 151.901C192.438 118.264 192.602 107.8 193.119 106.239C193.989 103.61 196.298 101.173 198.692 100.351ZM149.617 137.85L113.621 137.848V149.901V161.954L149.671 161.952H185.67V149.899V137.847L149.617 137.85ZM81.1033 100.213C82.8975 99.5547 99.1563 99.6639 100.815 100.349C102.99 101.224 105.355 103.828 106.17 106.239C106.687 107.8 106.849 118.263 106.794 151.902C106.767 175.923 106.576 196.221 106.305 196.988C105.679 198.878 103.368 201.645 101.628 202.521C100.595 203.07 97.9042 203.262 91.1068 203.316C86.1321 203.342 81.4812 203.151 80.7752 202.876C78.79 202.081 77.485 200.493 76.6151 197.808C75.909 195.727 75.8276 189.072 75.8548 151.188C75.8833 117.633 76.073 106.539 76.5622 105.115C77.3508 102.953 79.2819 100.898 81.1033 100.213ZM68.1631 118.182C66.2334 117.277 63.4594 116.948 58.7557 117.086C52.5303 117.223 50.1927 118.538 48.8321 122.428C48.2874 124.072 48.1803 177.596 48.7237 180.169C49.2685 182.689 51.0342 184.635 53.5629 185.538C54.5141 185.839 57.6947 186.086 60.7952 186.031C65.6358 185.977 66.6142 185.813 68.3257 184.853C69.6578 184.115 70.6362 183.293 71.2894 182.416C72.1878 181.184 72.242 179.267 72.3219 152.175C72.3219 135.631 72.1309 122.73 71.8598 122.018C71.2623 120.536 69.7377 118.948 68.1631 118.182ZM25.9392 140.778C27.5152 138.313 28.7931 137.902 35.482 137.848L41.5706 137.791V149.898V161.952L36.1068 161.979C29.8799 162.004 28.9015 161.786 27.1615 160.033C25.3403 158.198 24.5786 155.515 24.4702 150.474C24.3618 145.215 24.7426 142.695 25.9392 140.778Z" fill="#F0F0F0"/>
</svg>
