<svg width="600" height="600" viewBox="0 0 600 600" fill="none" xmlns="http://www.w3.org/2000/svg">
<g clip-path="url(#clip0_141_201)">
<path d="M181 376.383V121.25C181.005 114.578 183.244 108.1 187.359 102.848C191.474 97.596 197.228 93.8727 203.705 92.2714L562.205 2.64642C566.604 1.55886 571.193 1.48627 575.624 2.43414C580.055 3.38202 584.213 5.32552 587.782 8.11754C591.351 10.9096 594.239 14.4769 596.226 18.5496C598.212 22.6224 599.247 27.0937 599.25 31.6252V390.125C599.277 416.436 590.62 442.021 574.621 462.91C558.623 483.798 536.177 498.823 510.768 505.652C485.358 512.481 458.405 510.734 434.09 500.681C409.775 490.627 389.458 472.83 376.291 450.051C363.123 427.271 357.842 400.783 361.267 374.695C364.691 348.608 376.629 324.38 395.229 305.77C413.829 287.161 438.051 275.21 464.137 271.772C490.223 268.334 516.714 273.602 539.5 286.758V69.8652L240.75 144.553V479.75C240.777 506.061 232.12 531.646 216.121 552.535C200.123 573.423 177.677 588.448 152.268 595.277C126.858 602.106 99.9052 600.359 75.5903 590.306C51.2754 580.252 30.9581 562.455 17.7908 539.676C4.62348 516.896 -0.657756 490.408 2.76651 464.32C6.19078 438.233 18.1291 414.005 36.7292 395.395C55.3293 376.786 79.5513 364.835 105.637 361.397C131.723 357.959 158.214 363.227 181 376.383V376.383ZM121.25 539.5C137.097 539.5 152.294 533.205 163.5 522C174.705 510.794 181 495.597 181 479.75C181 463.903 174.705 448.706 163.5 437.501C152.294 426.295 137.097 420 121.25 420C105.403 420 90.2058 426.295 79.0005 437.501C67.7952 448.706 61.5001 463.903 61.5001 479.75C61.5001 495.597 67.7952 510.794 79.0005 522C90.2058 533.205 105.403 539.5 121.25 539.5V539.5ZM479.75 449.875C495.597 449.875 510.794 443.58 522 432.375C533.205 421.169 539.5 405.972 539.5 390.125C539.5 374.278 533.205 359.081 522 347.876C510.794 336.67 495.597 330.375 479.75 330.375C463.903 330.375 448.706 336.67 437.5 347.876C426.295 359.081 420 374.278 420 390.125C420 405.972 426.295 421.169 437.5 432.375C448.706 443.58 463.903 449.875 479.75 449.875V449.875Z" fill="#F0F0F0"/>
</g>
<defs>
<clipPath id="clip0_141_201">
<rect width="600" height="600" fill="white"/>
</clipPath>
</defs>
</svg>
