<svg width="300" height="300" viewBox="0 0 300 300" fill="none" xmlns="http://www.w3.org/2000/svg">
<path fill-rule="evenodd" clip-rule="evenodd" d="M40 0C17.9086 0 0 17.9086 0 40V260C0 282.091 17.9086 300 40 300H260C282.091 300 300 282.091 300 260V40C300 17.9086 282.091 0 260 0H40ZM100 75V181.75C90.466 176.246 79.3819 174.042 68.4674 175.48C57.5528 176.918 47.4181 181.919 39.6357 189.705C31.8532 197.491 26.8581 207.629 25.4253 218.544C23.9926 229.459 26.2023 240.542 31.7116 250.073C37.221 259.605 45.7219 267.051 55.8955 271.258C66.0691 275.464 77.3466 276.195 87.9782 273.338C98.6098 270.48 108.001 264.194 114.695 255.454C121.389 246.714 125.011 236.009 125 225V84.75L250 53.5V144.25C240.466 138.746 229.382 136.542 218.467 137.98C207.553 139.418 197.418 144.419 189.636 152.205C181.853 159.991 176.858 170.129 175.425 181.044C173.993 191.959 176.202 203.042 181.712 212.573C187.221 222.105 195.722 229.551 205.896 233.758C216.069 237.964 227.347 238.695 237.978 235.838C248.61 232.98 258.001 226.694 264.695 217.954C271.389 209.214 275.011 198.509 275 187.5V37.5C274.999 35.604 274.566 33.7331 273.735 32.0291C272.903 30.325 271.695 28.8324 270.202 27.6642C268.708 26.4959 266.969 25.6828 265.115 25.2862C263.261 24.8896 261.341 24.9199 259.5 25.375L109.5 62.875C106.79 63.545 104.382 65.1028 102.661 67.3003C100.939 69.4978 100.002 72.2083 100 75ZM92.6777 242.678C87.9893 247.366 81.6305 250 75 250C68.3696 250 62.0108 247.366 57.3224 242.678C52.634 237.989 50 231.63 50 225C50 218.37 52.634 212.011 57.3224 207.322C62.0108 202.634 68.3696 200 75 200C81.6305 200 87.9893 202.634 92.6777 207.322C97.3661 212.011 100 218.37 100 225C100 231.63 97.3661 237.989 92.6777 242.678ZM242.678 205.178C237.989 209.866 231.63 212.5 225 212.5C218.37 212.5 212.011 209.866 207.322 205.178C202.634 200.489 200 194.13 200 187.5C200 180.87 202.634 174.511 207.322 169.822C212.011 165.134 218.37 162.5 225 162.5C231.63 162.5 237.989 165.134 242.678 169.822C247.366 174.511 250 180.87 250 187.5C250 194.13 247.366 200.489 242.678 205.178Z" fill="#F0F0F0"/>
</svg>
