<svg width="300" height="300" viewBox="0 0 300 300" fill="none" xmlns="http://www.w3.org/2000/svg">
<path fill-rule="evenodd" clip-rule="evenodd" d="M40 0C17.9086 0 0 17.9086 0 40V260C0 282.091 17.9086 300 40 300H260C282.091 300 300 282.091 300 260V40C300 17.9086 282.091 0 260 0H40ZM244.777 27.4602C248.77 26.1613 253.977 25.0725 258.952 24.9042L258.953 24.7797C267.246 24.6867 274.876 27.7897 275.082 38.9856L275.476 182.656V191.534C275.476 191.534 275.077 191.702 275.04 191.702C273.809 214.01 250.762 231.795 222.517 231.795C193.484 231.795 169.953 213.009 169.953 189.829C169.953 166.65 193.484 147.846 222.517 147.846C229.578 147.846 236.32 148.965 242.47 150.981V56.562L130.816 92.0893L129.299 239.102C126.286 259.995 104.065 276.223 77.088 276.223C48.0552 276.223 24.5242 257.436 24.5242 234.254C24.5242 211.076 48.0552 192.271 77.088 192.271C84.2999 192.271 91.1791 193.443 97.4361 195.541V89.0403C96.3212 80.1075 101.252 74.3999 109.325 70.3557L244.777 27.4602Z" fill="#F0F0F0"/>
</svg>
