<svg width="300" height="300" viewBox="0 0 300 300" fill="none" xmlns="http://www.w3.org/2000/svg">
<path fill-rule="evenodd" clip-rule="evenodd" d="M40 0C17.9086 0 0 17.9086 0 40V260C0 282.091 17.9086 300 40 300H260C282.091 300 300 282.091 300 260V40C300 17.9086 282.091 0 260 0H40ZM222.522 35.0025C228.93 28.5534 238.165 24.6848 247.205 24.6848C255.068 24.6848 262.255 27.5655 267.451 32.8093C280.072 45.5248 276.396 66.2952 265.043 77.7357L221.617 121.526L252.743 206.536C254.968 215.108 258.003 226.84 245.14 239.808C241.382 243.586 234.415 250.579 224.033 250.579C216.655 250.579 209.321 246.949 202.224 239.808L158.092 185.6L128.131 215.813L135.734 249.504C136.885 254.917 138.067 260.522 131.473 267.15C126.663 271.749 121.563 276.127 115.224 276.127C111.392 276.127 107.876 274.53 104.763 271.393L103.629 269.922L76.8371 224.16L29.8342 196.087C25.9808 192.201 25.1971 188.115 25.2187 185.369C25.2793 178.137 30.7044 172.832 33.3195 170.291L33.9214 169.686C38.8702 164.203 45.1785 162.562 53.0931 164.586L85.2453 172.667L115.371 142.445L61.4278 98.0013C47.2135 83.68 47.2135 69.1629 61.4278 54.8329C67.8963 48.3142 74.7588 45.1505 82.418 45.1505C86.8389 45.1505 90.8599 46.2026 94.4134 47.1323L94.5064 47.1566L96.2946 47.6745L178.926 78.7148L222.522 35.0025ZM71.8536 65.2769C66.4632 70.7078 60.8866 76.3345 71.6025 87.3006L125.91 131.988L167.47 90.2119L90.7743 61.4692L90.5753 61.4174C87.6743 60.6616 84.9282 59.9461 82.418 59.9461C79.9674 59.9461 76.5426 60.551 71.8536 65.2769ZM238.511 210.261L238.316 209.521L210.165 133.049L168.466 174.96L213.139 229.895C216.885 233.62 220.712 235.779 224.042 235.779C228.316 235.779 231.998 232.09 234.692 229.391L234.723 229.36C241.645 222.385 240.466 217.822 238.516 210.277L238.511 210.261ZM207.68 114.633L254.618 67.2917C260.831 61.0297 263.346 49.6153 257.038 43.2576C253.942 40.1374 249.985 39.4847 247.21 39.4847C241.992 39.4847 236.65 41.7214 232.926 45.4769L185.984 92.5356L130.2 148.607L130.135 148.546L89.7568 189.046L49.4735 178.933C47.0792 178.32 46.0748 178.263 44.9577 179.477C44.9317 179.538 44.3515 180.147 43.5809 180.905C41.1562 183.267 40.2903 184.534 40.0305 185.213L87.5963 213.355L115.579 261.136C116.393 260.727 118.021 259.595 121.203 256.554C121.84 255.905 122.021 255.566 122.03 255.557C121.953 255.451 121.655 254.045 121.393 252.812L121.342 252.572L121.039 251.136L111.985 211.14L152.896 169.877L152.805 169.786L207.68 114.633Z" fill="#F0F0F0"/>
</svg>
