<svg width="600" height="600" viewBox="0 0 600 600" fill="none" xmlns="http://www.w3.org/2000/svg">
<path d="M530.804 1.8358C509.351 1.8358 487.435 11.0091 472.228 26.3014L368.772 129.953L172.679 56.3494L168.435 55.1215C159.948 52.9029 150.331 50.3646 139.748 50.3646C121.572 50.3646 105.287 57.8662 89.9364 73.3236C56.2045 107.303 56.2045 141.726 89.9364 175.685L217.949 281.07L146.458 352.733L70.1576 333.571C51.3754 328.773 36.4051 332.663 24.6611 345.665L23.2329 347.099C17.027 353.125 4.15274 365.703 4.0089 382.853C3.95752 389.364 5.81725 399.053 14.9618 408.268L126.504 474.834L190.084 583.345L192.776 586.833C200.164 594.272 208.507 598.059 217.6 598.059C232.642 598.059 244.746 587.679 256.161 576.772C271.809 561.057 269.004 547.766 266.271 534.93L248.229 455.043L319.33 383.4L424.06 511.94C440.901 528.873 458.306 537.478 475.814 537.478C500.453 537.478 516.985 520.896 525.903 511.94C556.429 481.19 549.227 453.371 543.946 433.043L470.081 231.468L573.136 127.631C600.076 100.503 608.8 51.252 578.849 21.1008C566.519 8.66677 549.463 1.8358 530.804 1.8358ZM114.082 150.311C88.6521 124.308 101.886 110.966 114.678 98.0885C125.805 86.8824 133.933 85.4481 139.748 85.4481C145.841 85.4481 152.52 87.2229 159.579 89.0596L341.585 157.214L242.958 256.274L114.082 150.311ZM509.71 440.122L510.173 441.876C514.807 459.789 517.622 470.613 501.182 487.165C494.781 493.572 486.017 502.385 475.835 502.385C467.933 502.385 458.85 497.267 449.963 488.434L343.948 358.171L442.904 258.792L509.71 440.122ZM548.395 102.866L437.006 215.123L306.784 345.902L307 346.119L209.914 443.96L231.399 538.799L232.118 542.204C232.765 545.248 233.557 549.015 233.752 549.283C233.731 549.304 233.3 550.109 231.789 551.646C224.237 558.859 220.374 561.542 218.442 562.512L152.037 449.213L39.1587 382.482C39.7752 380.872 41.8302 377.869 47.584 372.266C49.4129 370.471 50.7897 369.026 50.8514 368.882C53.5022 366.003 55.886 366.137 61.5679 367.592L157.164 391.572L252.986 295.536L253.14 295.681L385.52 162.725L496.918 51.1385C505.755 42.2334 518.434 36.9296 530.815 36.9296C537.401 36.9296 546.792 38.4774 554.138 45.8759C569.108 60.9515 563.139 88.0174 548.395 102.866Z" fill="#F0F0F0"/>
</svg>
