<svg width="300" height="300" viewBox="0 0 300 300" fill="none" xmlns="http://www.w3.org/2000/svg">
<rect width="300" height="300" rx="64" fill="#F0F0F0" fill-opacity="0.1"/>
<g clip-path="url(#clip0_121_63)">
<path d="M59.7852 76H240.381C246.854 76 252 81.2913 252 87.7402V211.425C252 213.74 251.336 216.055 250.008 218.039C249.842 218.701 249.344 219.197 248.846 219.693C248.514 220.024 248.182 220.189 247.684 220.52C245.526 222.339 242.871 223.165 240.215 223.331H59.7852C53.3116 223.331 48.166 218.205 48.166 211.756V87.7402C48.166 81.2913 53.3116 76 59.7852 76ZM59.2872 206.299L120.371 143.134L59.2872 91.7087V206.299ZM129.5 151.071L64.2669 213.906H235.235L172.823 151.071L154.565 166.283C152.905 167.606 150.581 167.606 148.755 166.283L129.5 151.071ZM181.953 142.969L240.879 206.795V91.2126L181.953 142.969ZM64.9308 84.9291L151.577 154.874L234.405 84.9291H64.9308V84.9291Z" fill="#F0F0F0"/>
</g>
<defs>
<clipPath id="clip0_121_63">
<rect width="204" height="147" fill="white" transform="translate(48 76)"/>
</clipPath>
</defs>
</svg>
