<svg width="300" height="300" viewBox="0 0 300 300" fill="none" xmlns="http://www.w3.org/2000/svg">
<rect width="300" height="300" rx="64" fill="#F0F0F0" fill-opacity="0.1"/>
<path d="M150 66.7C177.2 66.7 180.6 66.7 191.65 67.55C219.7 68.4 232.45 82 233.3 109.2C234.15 120.25 234.15 122.8 234.15 150C234.15 177.2 234.15 180.6 233.3 190.8C232.45 218 218.85 231.6 191.65 232.45C180.6 233.3 178.05 233.3 150 233.3C122.8 233.3 119.4 233.3 109.2 232.45C81.15 231.6 68.4 218 67.55 190.8C66.7 179.75 66.7 177.2 66.7 150C66.7 122.8 66.7 119.4 67.55 109.2C68.4 82 82 68.4 109.2 67.55C119.4 66.7 122.8 66.7 150 66.7ZM150 48C121.95 48 118.55 48 108.35 48.85C70.95 50.55 50.55 70.95 48.85 108.35C48 118.55 48 121.95 48 150C48 178.05 48 181.45 48.85 191.65C50.55 229.05 70.95 249.45 108.35 251.15C118.55 252 121.95 252 150 252C178.05 252 181.45 252 191.65 251.15C229.05 249.45 249.45 229.05 251.15 191.65C252 181.45 252 178.05 252 150C252 121.95 252 118.55 251.15 108.35C249.45 70.95 229.05 50.55 191.65 48.85C181.45 48 178.05 48 150 48ZM150 97.3C121.1 97.3 97.3 121.1 97.3 150C97.3 178.9 121.1 202.7 150 202.7C178.9 202.7 202.7 178.9 202.7 150C202.7 121.1 178.9 97.3 150 97.3ZM150 184C131.3 184 116 168.7 116 150C116 131.3 131.3 116 150 116C168.7 116 184 131.3 184 150C184 168.7 168.7 184 150 184ZM204.4 83.7C197.6 83.7 192.5 88.8 192.5 95.6C192.5 102.4 197.6 107.5 204.4 107.5C211.2 107.5 216.3 102.4 216.3 95.6C216.3 88.8 211.2 83.7 204.4 83.7Z" fill="#F0F0F0"/>
</svg>
