<?xml version="1.0" encoding="utf-8"?>
<!-- Generator: Adobe Illustrator 24.3.0, SVG Export Plug-In . SVG Version: 6.00 Build 0)  -->
<svg version="1.1" id="Layer_1" xmlns="http://www.w3.org/2000/svg" xmlns:xlink="http://www.w3.org/1999/xlink" x="0px" y="0px"
	 viewBox="0 0 800 600" style="enable-background:new 0 0 800 600;" xml:space="preserve">
<style type="text/css">
	.st0{fill:#EB3E38;}
	.st1{display:none;}
	.st2{display:inline;}
	.st3{fill:#0DE5FA;}
	.st4{display:none;fill:#EB3E38;}
</style>
<g>
	
		<rect x="469.9" y="374" transform="matrix(0.7071 -0.7071 0.7071 0.7071 -120.2252 461.3693)" class="st0" width="53.7" height="3.7"/>
	<polygon class="st0" points="289.2,355.8 291.9,353.1 330.4,391.4 327.7,394 	"/>
	<polygon class="st0" points="404,392.5 328.3,316.6 290.2,354.8 404,469 516,357 477.6,318.6 	"/>
</g>
<g id="XMLID_1_" class="st1">
	<g class="st2">
		<path class="st3" d="M662,211L404,469L145,209L255,99l149,148l147-146L662,211z M404,392.5L585,211l-34-34L404,323.4L255,175
			l-34,34L404,392.5z"/>
	</g>
	<g class="st2">
	</g>
</g>
<polygon class="st4" points="328.5,393.2 257,465 146,355 329.3,172.8 404,247 478,173.5 661,357 550,467 478,395 516,357 550,391 
	584,357 477.4,250.3 404,323.4 329.1,248.8 222,356 255,389 290.2,354.8 "/>
</svg>
