<?xml version="1.0" encoding="utf-8"?>
<!-- Generator: Adobe Illustrator 24.3.0, SVG Export Plug-In . SVG Version: 6.00 Build 0)  -->
<svg version="1.1" id="Layer_1" xmlns="http://www.w3.org/2000/svg" xmlns:xlink="http://www.w3.org/1999/xlink" x="0px" y="0px"
	 viewBox="0 0 800 600" style="enable-background:new 0 0 800 600;" xml:space="preserve">
<style type="text/css">
	.st0{display:none;fill:#0F0F0F;}
	.st1{fill:#36B5FF;}
	.st2{fill:#BD7AF7;}
</style>
<rect y="-4" class="st0" width="800" height="604"/>
<g>
	
		<rect x="504.2" y="438.8" transform="matrix(0.7071 -0.7071 0.7071 0.7071 -153.6774 515.7075)" class="st1" width="83" height="9"/>
	<polygon class="st1" points="282,470.8 286.3,466.5 227.1,407.3 222.6,411.8 	"/>
</g>
<g id="XMLID_3_">
	<g>
		<polygon class="st1" points="573.7,412.7 400.8,585.7 225,409.3 283.9,350.3 400.8,467.6 514.4,353.4 571.4,410.4 		"/>
	</g>
	<g>
	</g>
</g>
<g>
	<g id="XMLID_1_">
		<g>
			<path class="st2" d="M799.2,187.3L400.8,585.7L0.8,184.2L170.7,14.3l230.1,228.6l227-225.5L799.2,187.3z M400.8,467.6
				l279.5-280.3l-52.5-52.5l-227,226.1L170.7,131.7l-52.5,52.5L400.8,467.6z"/>
		</g>
		<g>
		</g>
	</g>
</g>
<g id="XMLID_2_">
	<g>
		<polygon class="st1" points="515.1,129.3 797.7,412.7 626.3,582.6 515.1,471.4 573.7,412.7 626.3,465.3 678.8,412.7 514.1,248 
			400.8,360.8 285.1,245.6 119.7,411.2 170.7,462.2 225,409.3 284.2,468.6 173.7,579.5 2.3,409.7 285.4,128.3 400.8,242.9 		"/>
	</g>
	<g>
	</g>
</g>
</svg>
