<svg width="300" height="300" viewBox="0 0 300 300" fill="none" xmlns="http://www.w3.org/2000/svg">
<rect width="300" height="300" rx="64" fill="#F0F0F0" fill-opacity="0.1"/>
<g clip-path="url(#clip0_121_62)">
<path d="M252.001 148.866C252.001 148.35 252.001 147.795 251.961 147.161C251.921 145.337 251.881 143.275 251.841 141.055C251.642 134.751 251.323 128.447 250.845 122.499C250.168 114.332 249.172 107.512 247.777 102.398C244.829 91.534 236.302 83.0096 225.385 80.0756C218.93 78.3707 206.34 77.3002 188.57 76.6262C180.123 76.309 171.078 76.1107 162.034 75.9918C158.886 75.9521 155.937 75.9125 153.308 75.9125H146.614C143.984 75.9521 141.036 75.9521 137.888 75.9918C128.844 76.1107 119.799 76.309 111.352 76.6262C93.582 77.3002 80.9516 78.3707 74.5367 80.0756C63.6195 83.0096 55.093 91.4943 52.1445 102.398C50.75 107.512 49.7938 114.332 49.0766 122.499C48.5586 128.447 48.2398 134.751 48.0805 141.055C48.0008 143.236 48.0008 145.297 47.9609 147.161C47.9609 147.835 47.9211 148.39 47.9211 148.866V150.134C47.9211 150.65 47.9211 151.205 47.9609 151.839C48.0008 153.663 48.0406 155.725 48.0805 157.945C48.2797 164.249 48.5984 170.553 49.0766 176.501C49.7539 184.668 50.75 191.488 52.1445 196.602C55.0531 207.466 63.6195 216.03 74.5367 218.924C80.9516 220.629 93.582 221.7 111.352 222.374C119.799 222.691 128.844 222.889 137.888 223.008C141.036 223.048 143.984 223.087 146.614 223.087H153.308C155.937 223.048 158.886 223.048 162.034 223.008C171.078 222.889 180.123 222.691 188.57 222.374C206.34 221.7 218.97 220.629 225.385 218.924C236.302 216.03 244.869 207.466 247.777 196.602C249.172 191.488 250.128 184.668 250.845 176.501C251.363 170.553 251.682 164.249 251.841 157.945C251.921 155.764 251.921 153.703 251.961 151.839C251.961 151.165 252.001 150.61 252.001 150.134V148.866V148.866ZM235.625 150.055C235.625 150.531 235.625 151.046 235.585 151.681C235.545 153.465 235.505 155.408 235.466 157.509C235.306 163.536 234.987 169.562 234.509 175.153C233.912 182.448 233.035 188.435 231.959 192.439C230.565 197.673 226.421 201.836 221.162 203.184C216.38 204.453 204.348 205.484 187.972 206.078C179.684 206.395 170.759 206.594 161.874 206.713C158.766 206.752 155.858 206.792 153.268 206.792H146.773L138.167 206.713C129.282 206.594 120.357 206.395 112.07 206.078C95.6938 205.444 83.6211 204.453 78.8797 203.184C73.6602 201.796 69.5164 197.673 68.082 192.439C67.0063 188.435 66.1297 182.448 65.532 175.153C65.0539 169.562 64.775 163.536 64.5758 157.509C64.4961 155.408 64.4961 153.425 64.4563 151.681C64.4563 151.086 64.4164 150.531 64.4164 150.055V148.985C64.4164 148.509 64.4164 147.993 64.4563 147.359C64.4961 145.575 64.5359 143.632 64.5758 141.531C64.7352 135.504 65.0539 129.478 65.532 123.887C66.1297 116.592 67.0063 110.605 68.082 106.6C69.4766 101.367 73.6203 97.2037 78.8797 95.8557C83.6609 94.5869 95.6938 93.5561 112.07 92.9613C120.357 92.6441 129.282 92.4459 138.167 92.3269C141.275 92.2873 144.184 92.2477 146.773 92.2477H153.268L161.874 92.3269C170.759 92.4459 179.684 92.6441 187.972 92.9613C204.348 93.5957 216.42 94.5869 221.162 95.8557C226.381 97.2434 230.525 101.367 231.959 106.6C233.035 110.605 233.912 116.592 234.509 123.887C234.987 129.478 235.266 135.504 235.466 141.531C235.545 143.632 235.545 145.614 235.585 147.359C235.585 147.954 235.625 148.509 235.625 148.985V150.055ZM129.72 179.871L182.553 149.302L129.72 119.169V179.871Z" fill="#F0F0F0"/>
</g>
<defs>
<clipPath id="clip0_121_62">
<rect width="204" height="203" fill="white" transform="translate(48 48)"/>
</clipPath>
</defs>
</svg>
